<?xml version="1.0" encoding="UTF-8"?>
<svg width="32px" height="32px" data-name="Layer 2" xmlns="http://www.w3.org/2000/svg" viewBox="0 0 99.68 96.68"><path d="m61.05 4.84 33.64 32.63c11.01 10.68.4 21.36.02 21.74h-.01L61.06 91.85c-11.21 10.88-22.43 0-22.43 0L4.98 59.22c-11.21-10.88 0-21.75 0-21.75L38.63 4.83c11.21-10.88 22.43 0 22.43 0Zm1.29 16.71c.06-.05.13-.08.21-.08-.08 0-.16.02-.21.08m23.21 31.47 4.32-4.19s.5-.49 0-.99l-4.06-3.94s-.03-.03-.07-.06l-.1-.1s-.06-.07-.1-.1l-.48-.47s-4.83-4.69-9.66 0l-5.55 5.38s-4.83 4.68 0 9.37l.48.47s4.83 4.68 9.66 0l3.28-3.19 2.27-2.2Zm-7.92-16.26c.11.05.24.02.33-.06.12-.11.12-.29 0-.42 0 0-.01-.01-.02-.01l-2.06-2-.2-.2-1.01-.98-.02-.02-4.03-3.9s-.03-.03-.07-.06l-.02-.02-.18-.18-.48-.47s-4.83-4.68-9.66 0L44.52 43.66s-4.83 4.68 0 9.37l.48.47s4.83 4.69 9.66 0l13.42-13.02 2.27-2.2c2.71-2.64 5.43-2.3 7.29-1.51Zm-15.2-14.75c.11.05.24.03.33-.06.11-.11.11-.3 0-.41-.01-.01-.03-.02-.04-.03h-.02.02c.01 0 .02.01.04.02l-2.07-2.01-.2-.2-1.01-.98-.02-.02-4.03-3.91s-.03-.03-.07-.06l-.02-.02-.18-.18-.48-.47s-4.83-4.69-9.66 0L29.33 28.9s-4.83 4.68 0 9.37l.48.47s4.83 4.68 9.66 0l13.42-13.02 2.27-2.2c2.72-2.64 5.43-2.3 7.29-1.51ZM49.31 67.52 24.23 43.19s-4.83-4.68-9.66 0l-.48.47-.18.2s-.03.02-.04.03c-.01 0-.03.02-.04.03l-4.06 3.94s-.51.49 0 .98l4.32 4.19 2.26 2.2L45 82.99s4.82 4.68 9.66 0l.04-.04.44-.43 1.79-1.74.04-.04L63 74.89l2.27-2.2 4.32-4.19s.51-.49 0-.98l-4.06-3.94s-.03-.03-.07-.06c-.03-.03-.07-.06-.1-.1l-.1-.1-.48-.47s-4.83-4.68-9.66 0l-4.81 4.66c-.5.47-1 0-1 0Z" style="fill-rule:evenodd" data-name="Layer 1"/></svg>